# xmcd
#
# Track frame offsets: 
#        182
#        12115
#        27190
#        43562
#        57472
#        77927
#        92032
#        107660
#        121790
#        140177
#
# Disc length: 2045 seconds
#
# Revision: 2
# Processed by: cddbd v1.5.2PL0 Copyright (c) Steve Scherf et al.
# Submitted via: ExactAudioCopy v1.0b1
#
DISCID=7f07fb0a
DTITLE=Marcy Brothers - Marcy Brothers
DYEAR=1991
DGENRE=Country
TTITLE0=Why Not Tonight
TTITLE1=Still Some Love
TTITLE2=Call Me Lonely
TTITLE3=Everybody Needs A Hero
TTITLE4=I Just Missed You
TTITLE5=The Only People In The World
TTITLE6=She Can
TTITLE7=By Dawn's Early Light
TTITLE8=The Lady I Love
TTITLE9=Don't Tell My Heart
EXTD=
EXTT0=
EXTT1=
EXTT2=
EXTT3=
EXTT4=
EXTT5=
EXTT6=
EXTT7=
EXTT8=
EXTT9=
PLAYORDER=
